<svg width="92" height="92" viewBox="0 0 92 92" fill="none" xmlns="http://www.w3.org/2000/svg">
<rect width="92" height="92" rx="15" fill="white"/>
<rect x="17" y="51" width="58" height="6" rx="2" fill="#3E3E3E"/>
<path fill-rule="evenodd" clip-rule="evenodd" d="M43.2362 16.3272C42.503 16.5687 41.5308 17.1721 40.8942 17.7806L39.8061 18.8207L39.8172 21.7056C39.8243 23.5376 39.9602 24.9591 40.1896 25.6006C40.3884 26.1563 40.4689 26.6412 40.3684 26.6784C40.2681 26.7155 39.3313 27.1701 38.287 27.6887C35.1984 29.2223 34.7041 30.1652 33.4901 36.8403C32.7989 40.6413 32.8285 42.52 33.6443 46.6105L34.3188 49.9912L33.7709 50.7302C32.9336 51.8603 33.0379 53.1166 34.0461 54.0403C34.5097 54.4651 35.0571 54.7462 35.2999 54.6843C35.5369 54.6237 35.7738 54.703 35.8263 54.8601C35.8961 55.0687 36.1101 55.0607 36.6175 54.8301C37.2142 54.5588 37.2899 54.4095 37.1512 53.7791C37.0099 53.1375 37.0527 53.0608 37.4871 53.1742C37.8429 53.2669 38.0355 53.1451 38.1619 52.7476C38.3221 52.2437 38.3763 52.2283 38.7333 52.5847C39.1113 52.9618 39.2341 55.2766 38.9042 55.8091C38.8323 55.925 38.948 57.2455 39.1617 58.7432C39.5534 61.4915 40.0818 68.6617 39.9132 68.9436C39.8633 69.0274 39.6967 69.9028 39.5433 70.8892C39.3123 72.3746 39.3341 72.9547 39.6711 74.2666C40.0975 75.9265 40.8555 77 41.6019 77C43.1694 77 43.6008 76.0142 43.615 72.4031C43.621 70.8333 43.7421 69.0375 43.8839 68.4124C44.0259 67.7873 44.2424 65.6846 44.3646 63.7397C44.7262 57.9986 44.8867 56.7368 45.4278 55.383C45.8663 54.286 45.9025 53.9175 45.6767 52.8605C45.5311 52.1795 45.4663 51.5683 45.5328 51.5019C45.7944 51.2409 46.5724 51.9893 47.7923 53.6753L49.0688 55.44L48.8511 57.6956C48.7313 58.9362 48.47 60.5838 48.2705 61.3569C48.0713 62.13 47.908 63.2358 47.908 63.8142C47.908 64.3929 47.7247 65.3234 47.5003 65.8823C47.1679 66.7113 47.1375 67.2096 47.3363 68.5877C47.4727 69.5348 47.4877 70.6714 47.3702 71.1756C46.9694 72.8941 47.1039 75.1072 47.6507 75.801C48.7645 77.2137 50.4034 76.8891 51.0799 75.1223C51.4488 74.1585 51.4969 73.4568 51.3728 70.85C51.291 69.1348 51.3153 67.6286 51.4272 67.5034C51.9615 66.9048 52.9884 63.7142 52.9527 62.7645C52.9312 62.1894 53.0998 61.0371 53.3276 60.2036C53.5555 59.3701 53.8515 57.3811 53.9857 55.7835C54.1199 54.186 54.2464 52.7084 54.267 52.5C54.2875 52.2917 54.3751 52.519 54.4619 53.0052C54.6088 53.8299 54.6807 53.8874 55.5339 53.8635C56.6292 53.8324 57.7189 53.1108 57.9472 52.2649C58.124 51.6115 57.8961 51.1397 56.6573 49.5926C55.9349 48.6907 55.902 48.5283 55.5926 44.3297C55.3754 41.3849 55.0668 39.2079 54.6288 37.5316C54.2444 36.0606 53.9844 34.3741 53.9844 33.3507C53.9844 32.012 53.8406 31.3475 53.3297 30.3246C52.5493 28.7626 51.6865 28.0983 49.5937 27.4487C47.6824 26.8554 46.8952 26.3634 46.8952 25.7615C46.8952 25.5092 47.175 25.1758 47.5168 25.0202C48.3602 24.637 49.5504 20.8875 49.2992 19.4054C49.1045 18.2559 48.387 17.2449 47.5859 16.9913C47.2768 16.8933 46.9008 16.6455 46.7504 16.4401C46.3562 15.9024 44.6885 15.8486 43.2362 16.3272ZM51.5412 42.8296C51.6328 44.3282 51.8151 46.0055 51.946 46.5574C52.0769 47.109 52.1318 47.6129 52.0678 47.6768C51.8652 47.8789 50.1724 46.0909 50.0299 45.5244C49.9547 45.2258 50.0618 44.4853 50.2679 43.8786C50.4737 43.2721 50.7236 42.1237 50.8231 41.3263C50.9224 40.5292 51.0872 39.9283 51.189 39.9912C51.2908 40.0538 51.4493 41.3313 51.5412 42.8296Z" fill="#030303"/>
</svg>
